<svg xmlns="http://www.w3.org/2000/svg" viewBox="0 0 1280 720" role="img" aria-labelledby="title desc">
  <title id="title">The Lorenz Attractor: Locally Unpredictable, Globally Bounded</title>
  <desc id="desc">A neon Lorenz attractor butterfly path with annotations for development trajectory, basin of attraction, and the bounded chaos concept.</desc>
  <defs>
    <radialGradient id="bg" cx="50%" cy="48%" r="80%">
      <stop offset="0%" stop-color="#101729"/>
      <stop offset="55%" stop-color="#08101d"/>
      <stop offset="100%" stop-color="#04070d"/>
    </radialGradient>
    <linearGradient id="trace" x1="20%" y1="15%" x2="80%" y2="85%">
      <stop offset="0%" stop-color="#b8f8ff"/>
      <stop offset="25%" stop-color="#79d7ff"/>
      <stop offset="55%" stop-color="#4c92ff"/>
      <stop offset="100%" stop-color="#8a58ff"/>
    </linearGradient>
    <linearGradient id="accent" x1="0%" y1="0%" x2="100%" y2="0%">
      <stop offset="0%" stop-color="#66e6ff"/>
      <stop offset="100%" stop-color="#ffffff"/>
    </linearGradient>
    <filter id="glow" x="-80%" y="-80%" width="260%" height="260%">
      <feGaussianBlur stdDeviation="5.5" result="blur"/>
      <feMerge>
        <feMergeNode in="blur"/>
        <feMergeNode in="SourceGraphic"/>
      </feMerge>
    </filter>
    <filter id="softGlow" x="-80%" y="-80%" width="260%" height="260%">
      <feGaussianBlur stdDeviation="2.2" result="blur"/>
      <feMerge>
        <feMergeNode in="blur"/>
        <feMergeNode in="SourceGraphic"/>
      </feMerge>
    </filter>
  </defs>
  <rect width="1280" height="720" fill="url(#bg)"/>
  <g fill="#ffffff" opacity="0.24">
    <circle cx="104" cy="74" r="1"/>
    <circle cx="252" cy="146" r="0.8"/>
    <circle cx="424" cy="88" r="1.1"/>
    <circle cx="966" cy="110" r="0.9"/>
    <circle cx="1144" cy="166" r="1.2"/>
    <circle cx="124" cy="632" r="0.9"/>
    <circle cx="348" cy="594" r="1.1"/>
    <circle cx="1102" cy="582" r="0.8"/>
  </g>
  <g opacity="0.22" stroke="#3e5a7a" stroke-width="1">
    <line x1="120" y1="160" x2="1160" y2="160"/>
    <line x1="120" y1="300" x2="1160" y2="300"/>
    <line x1="120" y1="440" x2="1160" y2="440"/>
    <line x1="120" y1="580" x2="1160" y2="580"/>
    <line x1="200" y1="120" x2="200" y2="620"/>
    <line x1="440" y1="120" x2="440" y2="620"/>
    <line x1="680" y1="120" x2="680" y2="620"/>
    <line x1="920" y1="120" x2="920" y2="620"/>
  </g>
  <ellipse cx="650" cy="372" rx="332" ry="210" fill="none" stroke="#74d7ff" stroke-opacity="0.22" stroke-width="2.2" stroke-dasharray="10 10"/>
  <ellipse cx="650" cy="372" rx="278" ry="176" fill="none" stroke="#74d7ff" stroke-opacity="0.12" stroke-width="1.2"/>
  <path d="M324 432C302 346 336 254 426 204C526 148 688 144 824 196C920 234 980 306 988 388" fill="none" stroke="#8adfff" stroke-opacity="0.34" stroke-width="2" stroke-dasharray="12 10"/>
  <polygon points="981,379 994,388 978,393" fill="#8adfff" fill-opacity="0.7"/>
  <g fill="none" stroke-linecap="round" stroke-linejoin="round">
    <path d="M632 372C598 338 534 264 514 220C500 188 512 170 540 174C584 180 636 250 660 318C684 384 680 448 658 496C636 542 592 556 554 536C512 514 508 456 540 404C572 354 632 320 690 314C744 308 796 326 836 362C880 402 898 458 884 502C870 548 828 572 784 560C730 546 690 502 668 444C646 386 646 322 676 270C704 220 752 198 790 206C824 212 838 240 826 268C812 300 780 320 742 328C708 334 670 330 632 372Z" stroke="#96e6ff" stroke-opacity="0.3" stroke-width="11" filter="url(#glow)"/>
    <path d="M632 372C598 338 534 264 514 220C500 188 512 170 540 174C584 180 636 250 660 318C684 384 680 448 658 496C636 542 592 556 554 536C512 514 508 456 540 404C572 354 632 320 690 314C744 308 796 326 836 362C880 402 898 458 884 502C870 548 828 572 784 560C730 546 690 502 668 444C646 386 646 322 676 270C704 220 752 198 790 206C824 212 838 240 826 268C812 300 780 320 742 328C708 334 670 330 632 372Z" stroke="url(#trace)" stroke-width="4.2" filter="url(#softGlow)"/>
    <path d="M640 360C606 326 552 264 534 230C520 202 530 188 550 192C580 198 622 252 646 314C672 382 670 442 652 484C634 522 600 534 572 520C544 504 540 462 566 422C594 380 640 354 690 350C744 346 790 364 822 394C856 426 866 470 854 504C842 538 812 552 780 546C736 538 698 504 676 454C652 396 654 330 680 286C706 242 742 224 770 228C790 232 798 246 792 264C784 286 764 302 734 314C706 326 676 330 640 360Z" stroke="#ffffff" stroke-opacity="0.72" stroke-width="1.6" stroke-dasharray="2 7"/>
  </g>
  <circle cx="632" cy="372" r="4.2" fill="#ffffff" filter="url(#softGlow)"/>
  <circle cx="884" cy="502" r="3.2" fill="#7cd7ff" filter="url(#softGlow)"/>
  <circle cx="514" cy="220" r="3.2" fill="#7cd7ff" filter="url(#softGlow)"/>
  <g font-family="Segoe UI, Arial, sans-serif">
    <text x="640" y="86" text-anchor="middle" fill="#f4f9ff" font-size="28" font-weight="700" letter-spacing="1">The Lorenz Attractor</text>
    <text x="640" y="114" text-anchor="middle" fill="#8fb0d8" font-size="14" letter-spacing="2.3">Locally Unpredictable, Globally Bounded</text>
    <text x="640" y="138" text-anchor="middle" fill="#8194b1" font-size="12">洛伦兹吸引子：局部不可预测，但整体有界</text>
    <line x1="910" y1="260" x2="776" y2="326" stroke="url(#accent)" stroke-width="1.6"/>
    <circle cx="776" cy="326" r="3" fill="#7cd7ff"/>
    <text x="920" y="254" fill="#dff8ff" font-size="16" font-weight="700">Development Trajectory</text>
    <text x="920" y="276" fill="#9cc3d8" font-size="12">开发轨迹</text>
    <line x1="368" y1="560" x2="436" y2="520" stroke="#74d7ff" stroke-width="1.6"/>
    <text x="180" y="570" fill="#dff8ff" font-size="16" font-weight="700">Basin of Attraction</text>
    <text x="180" y="592" fill="#9cc3d8" font-size="12">吸引区域</text>
    <text x="640" y="648" text-anchor="middle" fill="#e9f7ff" font-size="18" font-weight="700">Locally Unpredictable, but Globally Bounded</text>
    <text x="640" y="672" text-anchor="middle" fill="#95b4ce" font-size="12">局部混沌、不走直线，但始终被整体结构约束</text>
  </g>
</svg>
